<!-- Generator: Adobe Illustrator 22.0.1, SVG Export Plug-In  -->
<svg version="1.1"
	 xmlns="http://www.w3.org/2000/svg" xmlns:xlink="http://www.w3.org/1999/xlink" xmlns:a="http://ns.adobe.com/AdobeSVGViewerExtensions/3.0/"
	 x="0px" y="0px" viewBox="0 0 315.7 315.7" style="enable-background:new 0 0 315.7 315.7;"
	 xml:space="preserve">
<style type="text/css">
	.pollution_st0{opacity:0.5;}
	.pollution_st1{clip-path:url(#SVGID_2_);}
	.pollution_st2{fill:none;stroke:#FFFFFF;stroke-miterlimit:10;}
	.pollution_st3{fill:#FFFFFF;}
	.pollution_st4{fill:none;stroke:#000000;stroke-width:4;stroke-miterlimit:10;}
	.pollution_st5{fill:none;stroke:#000000;stroke-width:2;stroke-miterlimit:10;}
	.pollution_st6{clip-path:url(#SVGID_6_);}
</style>
<defs>
</defs>
<g class="pollution_st0">
	<defs>
		<circle id="SVGID_1_" class="pollution_st0" cx="179.8" cy="155.8" r="60"/>
	</defs>
	<clipPath id="SVGID_2_">
		<use xlink:href="#SVGID_1_"  style="overflow:visible;"/>
	</clipPath>
	<g class="pollution_st1">
		<line class="pollution_st2" x1="185.2" y1="0.4" x2="0.4" y2="185.2"/>
		<line class="pollution_st2" x1="189.4" y1="4.6" x2="4.6" y2="189.4"/>
		<line class="pollution_st2" x1="193.6" y1="8.8" x2="8.8" y2="193.6"/>
		<line class="pollution_st2" x1="197.8" y1="13" x2="13" y2="197.8"/>
		<line class="pollution_st2" x1="202" y1="17.2" x2="17.2" y2="202"/>
		<line class="pollution_st2" x1="206.2" y1="21.4" x2="21.4" y2="206.2"/>
		<line class="pollution_st2" x1="210.4" y1="25.6" x2="25.6" y2="210.4"/>
		<line class="pollution_st2" x1="214.6" y1="29.8" x2="29.8" y2="214.6"/>
		<line class="pollution_st2" x1="218.8" y1="34" x2="34" y2="218.8"/>
		<line class="pollution_st2" x1="223" y1="38.2" x2="38.2" y2="223"/>
		<line class="pollution_st2" x1="227.2" y1="42.4" x2="42.4" y2="227.2"/>
		<line class="pollution_st2" x1="231.4" y1="46.6" x2="46.6" y2="231.4"/>
		<line class="pollution_st2" x1="235.6" y1="50.8" x2="50.8" y2="235.6"/>
		<line class="pollution_st2" x1="239.8" y1="55" x2="55" y2="239.8"/>
		<line class="pollution_st2" x1="244" y1="59.2" x2="59.2" y2="244"/>
		<line class="pollution_st2" x1="248.2" y1="63.4" x2="63.4" y2="248.2"/>
		<line class="pollution_st2" x1="252.4" y1="67.6" x2="67.6" y2="252.4"/>
		<line class="pollution_st2" x1="256.6" y1="71.8" x2="71.8" y2="256.6"/>
		<line class="pollution_st2" x1="260.8" y1="76" x2="76" y2="260.8"/>
		<line class="pollution_st2" x1="265" y1="80.2" x2="80.2" y2="265"/>
		<line class="pollution_st2" x1="269.2" y1="84.4" x2="84.4" y2="269.2"/>
		<line class="pollution_st2" x1="273.4" y1="88.6" x2="88.6" y2="273.4"/>
		<line class="pollution_st2" x1="277.6" y1="92.8" x2="92.8" y2="277.6"/>
		<line class="pollution_st2" x1="281.8" y1="97" x2="97" y2="281.8"/>
		<line class="pollution_st2" x1="286" y1="101.2" x2="101.2" y2="286"/>
		<line class="pollution_st2" x1="290.2" y1="105.4" x2="105.4" y2="290.2"/>
		<line class="pollution_st2" x1="294.4" y1="109.6" x2="109.6" y2="294.4"/>
		<line class="pollution_st2" x1="298.6" y1="113.8" x2="113.8" y2="298.6"/>
		<line class="pollution_st2" x1="302.8" y1="118" x2="118" y2="302.8"/>
		<line class="pollution_st2" x1="307" y1="122.2" x2="122.2" y2="307"/>
		<line class="pollution_st2" x1="311.2" y1="126.4" x2="126.4" y2="311.2"/>
		<line class="pollution_st2" x1="315.4" y1="130.6" x2="130.6" y2="315.4"/>
	</g>
</g>
<g>
	<circle class="pollution_st3" cx="179.8" cy="155.8" r="31"/>
	<path d="M179.8,125.8c16.6,0,30,13.4,30,30s-13.4,30-30,30s-30-13.4-30-30S163.2,125.8,179.8,125.8 M179.8,123.8
		c-17.6,0-32,14.4-32,32s14.4,32,32,32s32-14.4,32-32S197.4,123.8,179.8,123.8L179.8,123.8z"/>
</g>
<g>
	<defs>
		<circle id="SVGID_3_" cx="179.8" cy="155.8" r="21"/>
	</defs>
	<clipPath id="SVGID_4_">
		<use xlink:href="#SVGID_3_"  style="overflow:visible;"/>
	</clipPath>
</g>
<circle class="pollution_st4" cx="179.8" cy="173.3" r="3.5"/>
<circle class="pollution_st5" cx="177.8" cy="152.8" r="4"/>
<circle class="pollution_st5" cx="164.8" cy="153.8" r="3"/>
<circle class="pollution_st5" cx="173.8" cy="163.8" r="2"/>
<circle class="pollution_st5" cx="181.8" cy="137.8" r="6"/>
<circle class="pollution_st5" cx="168.8" cy="143.8" r="2"/>
<circle class="pollution_st5" cx="190.8" cy="152.8" r="3"/>
<circle class="pollution_st5" cx="185.8" cy="163.8" r="2"/>
</svg>
